<?xml version="1.0" encoding="UTF-8"?>
<!DOCTYPE svg PUBLIC "-//W3C//DTD SVG 1.1//EN" "http://www.w3.org/Graphics/SVG/1.1/DTD/svg11.dtd">
<!-- Creator: CorelDRAW -->
<svg xmlns="http://www.w3.org/2000/svg" xml:space="preserve" width="200px" height="300px" style="shape-rendering:geometricPrecision; text-rendering:geometricPrecision; image-rendering:optimizeQuality; fill-rule:evenodd; clip-rule:evenodd"
viewBox="0 0 200 282.857"
 xmlns:xlink="http://www.w3.org/1999/xlink">
 <defs>
  <style type="text/css">
   <![CDATA[
    .str0 {stroke:#1F1A17;stroke-width:0.190476}
    .fil4 {fill:none}
    .fil2 {fill:white}
    .fil0 {fill:#1F1A17;fill-rule:nonzero}
    .fil1 {fill:url(#id128)}
    .fil3 {fill:url(#id129)}
   ]]>
  </style>
      <clipPath id="id0">
       <path d="M14.1937 66.2835l21.622 0 0 21.6021 -21.622 0 0 -21.6021z"/>
      </clipPath>
      <clipPath id="id1">
       <path d="M35.8157 66.2835l21.6221 0 0 21.6021 -21.6221 0 0 -21.6021z"/>
      </clipPath>
      <clipPath id="id2">
       <path d="M57.4378 66.2835l21.6224 0 0 21.6021 -21.6224 0 0 -21.6021z"/>
      </clipPath>
      <clipPath id="id3">
       <path d="M79.0602 66.2835l21.6224 0 0 21.6021 -21.6224 0 0 -21.6021z"/>
      </clipPath>
      <clipPath id="id4">
       <path d="M100.683 66.2835l21.6223 0 0 21.6021 -21.6223 0 0 -21.6021z"/>
      </clipPath>
      <clipPath id="id5">
       <path d="M122.305 66.2835l21.6224 0 0 21.6021 -21.6224 0 0 -21.6021z"/>
      </clipPath>
      <clipPath id="id6">
       <path d="M143.927 66.2835l21.6224 0 0 21.6021 -21.6224 0 0 -21.6021z"/>
      </clipPath>
      <clipPath id="id7">
       <path d="M165.55 66.2835l21.6223 0 0 21.6021 -21.6223 0 0 -21.6021z"/>
      </clipPath>
      <clipPath id="id8">
       <path d="M14.1937 87.8856l21.622 0 0 21.6021 -21.622 0 0 -21.6021z"/>
      </clipPath>
      <clipPath id="id9">
       <path d="M35.8157 87.8856l21.6221 0 0 21.6021 -21.6221 0 0 -21.6021z"/>
      </clipPath>
      <clipPath id="id10">
       <path d="M57.4378 87.8856l21.6224 0 0 21.6021 -21.6224 0 0 -21.6021z"/>
      </clipPath>
      <clipPath id="id11">
       <path d="M79.0602 87.8856l21.6224 0 0 21.6021 -21.6224 0 0 -21.6021z"/>
      </clipPath>
      <clipPath id="id12">
       <path d="M100.683 87.8856l21.6223 0 0 21.6021 -21.6223 0 0 -21.6021z"/>
      </clipPath>
      <clipPath id="id13">
       <path d="M122.305 87.8856l21.6224 0 0 21.6021 -21.6224 0 0 -21.6021z"/>
      </clipPath>
      <clipPath id="id14">
       <path d="M143.927 87.8856l21.6224 0 0 21.6021 -21.6224 0 0 -21.6021z"/>
      </clipPath>
      <clipPath id="id15">
       <path d="M165.55 87.8856l21.6223 0 0 21.6021 -21.6223 0 0 -21.6021z"/>
      </clipPath>
      <clipPath id="id16">
       <path d="M14.1937 109.488l21.622 0 0 21.6022 -21.622 0 0 -21.6022z"/>
      </clipPath>
      <clipPath id="id17">
       <path d="M35.8157 109.488l21.6221 0 0 21.6022 -21.6221 0 0 -21.6022z"/>
      </clipPath>
      <clipPath id="id18">
       <path d="M57.4378 109.488l21.6224 0 0 21.6022 -21.6224 0 0 -21.6022z"/>
      </clipPath>
      <clipPath id="id19">
       <path d="M79.0602 109.488l21.6224 0 0 21.6022 -21.6224 0 0 -21.6022z"/>
      </clipPath>
      <clipPath id="id20">
       <path d="M100.683 109.488l21.6223 0 0 21.6022 -21.6223 0 0 -21.6022z"/>
      </clipPath>
      <clipPath id="id21">
       <path d="M122.305 109.488l21.6224 0 0 21.6022 -21.6224 0 0 -21.6022z"/>
      </clipPath>
      <clipPath id="id22">
       <path d="M143.927 109.488l21.6224 0 0 21.6022 -21.6224 0 0 -21.6022z"/>
      </clipPath>
      <clipPath id="id23">
       <path d="M165.55 109.488l21.6223 0 0 21.6022 -21.6223 0 0 -21.6022z"/>
      </clipPath>
      <clipPath id="id24">
       <path d="M14.1937 131.09l21.622 0 0 21.6022 -21.622 0 0 -21.6022z"/>
      </clipPath>
      <clipPath id="id25">
       <path d="M35.8157 131.09l21.6221 0 0 21.6022 -21.6221 0 0 -21.6022z"/>
      </clipPath>
      <clipPath id="id26">
       <path d="M57.4378 131.09l21.6224 0 0 21.6022 -21.6224 0 0 -21.6022z"/>
      </clipPath>
      <clipPath id="id27">
       <path d="M79.0602 131.09l21.6224 0 0 21.6022 -21.6224 0 0 -21.6022z"/>
      </clipPath>
      <clipPath id="id28">
       <path d="M100.683 131.09l21.6223 0 0 21.6022 -21.6223 0 0 -21.6022z"/>
      </clipPath>
      <clipPath id="id29">
       <path d="M122.305 131.09l21.6224 0 0 21.6022 -21.6224 0 0 -21.6022z"/>
      </clipPath>
      <clipPath id="id30">
       <path d="M143.927 131.09l21.6224 0 0 21.6022 -21.6224 0 0 -21.6022z"/>
      </clipPath>
      <clipPath id="id31">
       <path d="M165.55 131.09l21.6223 0 0 21.6022 -21.6223 0 0 -21.6022z"/>
      </clipPath>
      <clipPath id="id32">
       <path d="M14.1937 152.692l21.622 0 0 21.6022 -21.622 0 0 -21.6022z"/>
      </clipPath>
      <clipPath id="id33">
       <path d="M35.8157 152.692l21.6221 0 0 21.6022 -21.6221 0 0 -21.6022z"/>
      </clipPath>
      <clipPath id="id34">
       <path d="M57.4378 152.692l21.6224 0 0 21.6022 -21.6224 0 0 -21.6022z"/>
      </clipPath>
      <clipPath id="id35">
       <path d="M79.0602 152.692l21.6224 0 0 21.6022 -21.6224 0 0 -21.6022z"/>
      </clipPath>
      <clipPath id="id36">
       <path d="M100.683 152.692l21.6223 0 0 21.6022 -21.6223 0 0 -21.6022z"/>
      </clipPath>
      <clipPath id="id37">
       <path d="M122.305 152.692l21.6224 0 0 21.6022 -21.6224 0 0 -21.6022z"/>
      </clipPath>
      <clipPath id="id38">
       <path d="M143.927 152.692l21.6224 0 0 21.6022 -21.6224 0 0 -21.6022z"/>
      </clipPath>
      <clipPath id="id39">
       <path d="M165.55 152.692l21.6223 0 0 21.6022 -21.6223 0 0 -21.6022z"/>
      </clipPath>
      <clipPath id="id40">
       <path d="M14.1937 174.294l21.622 0 0 21.6022 -21.622 0 0 -21.6022z"/>
      </clipPath>
      <clipPath id="id41">
       <path d="M35.8157 174.294l21.6221 0 0 21.6022 -21.6221 0 0 -21.6022z"/>
      </clipPath>
      <clipPath id="id42">
       <path d="M57.4378 174.294l21.6224 0 0 21.6022 -21.6224 0 0 -21.6022z"/>
      </clipPath>
      <clipPath id="id43">
       <path d="M79.0602 174.294l21.6224 0 0 21.6022 -21.6224 0 0 -21.6022z"/>
      </clipPath>
      <clipPath id="id44">
       <path d="M100.683 174.294l21.6223 0 0 21.6022 -21.6223 0 0 -21.6022z"/>
      </clipPath>
      <clipPath id="id45">
       <path d="M122.305 174.294l21.6224 0 0 21.6022 -21.6224 0 0 -21.6022z"/>
      </clipPath>
      <clipPath id="id46">
       <path d="M143.927 174.294l21.6224 0 0 21.6022 -21.6224 0 0 -21.6022z"/>
      </clipPath>
      <clipPath id="id47">
       <path d="M165.55 174.294l21.6223 0 0 21.6022 -21.6223 0 0 -21.6022z"/>
      </clipPath>
      <clipPath id="id48">
       <path d="M14.1937 195.896l21.622 0 0 21.6022 -21.622 0 0 -21.6022z"/>
      </clipPath>
      <clipPath id="id49">
       <path d="M35.8157 195.896l21.6221 0 0 21.6022 -21.6221 0 0 -21.6022z"/>
      </clipPath>
      <clipPath id="id50">
       <path d="M57.4378 195.896l21.6224 0 0 21.6022 -21.6224 0 0 -21.6022z"/>
      </clipPath>
      <clipPath id="id51">
       <path d="M79.0602 195.896l21.6224 0 0 21.6022 -21.6224 0 0 -21.6022z"/>
      </clipPath>
      <clipPath id="id52">
       <path d="M100.683 195.896l21.6223 0 0 21.6022 -21.6223 0 0 -21.6022z"/>
      </clipPath>
      <clipPath id="id53">
       <path d="M122.305 195.896l21.6224 0 0 21.6022 -21.6224 0 0 -21.6022z"/>
      </clipPath>
      <clipPath id="id54">
       <path d="M143.927 195.896l21.6224 0 0 21.6022 -21.6224 0 0 -21.6022z"/>
      </clipPath>
      <clipPath id="id55">
       <path d="M165.55 195.896l21.6223 0 0 21.6022 -21.6223 0 0 -21.6022z"/>
      </clipPath>
      <clipPath id="id56">
       <path d="M14.1937 217.499l21.622 0 0 21.6021 -21.622 0 0 -21.6021z"/>
      </clipPath>
      <clipPath id="id57">
       <path d="M35.8157 217.499l21.6221 0 0 21.6021 -21.6221 0 0 -21.6021z"/>
      </clipPath>
      <clipPath id="id58">
       <path d="M57.4378 217.499l21.6224 0 0 21.6021 -21.6224 0 0 -21.6021z"/>
      </clipPath>
      <clipPath id="id59">
       <path d="M79.0602 217.499l21.6224 0 0 21.6021 -21.6224 0 0 -21.6021z"/>
      </clipPath>
      <clipPath id="id60">
       <path d="M100.683 217.499l21.6223 0 0 21.6021 -21.6223 0 0 -21.6021z"/>
      </clipPath>
      <clipPath id="id61">
       <path d="M122.305 217.499l21.6224 0 0 21.6021 -21.6224 0 0 -21.6021z"/>
      </clipPath>
      <clipPath id="id62">
       <path d="M143.927 217.499l21.6224 0 0 21.6021 -21.6224 0 0 -21.6021z"/>
      </clipPath>
      <clipPath id="id63">
       <path d="M165.55 217.499l21.6223 0 0 21.6021 -21.6223 0 0 -21.6021z"/>
      </clipPath>
      <clipPath id="id64">
       <path d="M14.1937 66.2835l21.622 0 0 21.6021 -21.622 0 0 -21.6021z"/>
      </clipPath>
      <clipPath id="id65">
       <path d="M35.8157 66.2835l21.6221 0 0 21.6021 -21.6221 0 0 -21.6021z"/>
      </clipPath>
      <clipPath id="id66">
       <path d="M57.4378 66.2835l21.6224 0 0 21.6021 -21.6224 0 0 -21.6021z"/>
      </clipPath>
      <clipPath id="id67">
       <path d="M79.0602 66.2835l21.6224 0 0 21.6021 -21.6224 0 0 -21.6021z"/>
      </clipPath>
      <clipPath id="id68">
       <path d="M100.683 66.2835l21.6223 0 0 21.6021 -21.6223 0 0 -21.6021z"/>
      </clipPath>
      <clipPath id="id69">
       <path d="M122.305 66.2835l21.6224 0 0 21.6021 -21.6224 0 0 -21.6021z"/>
      </clipPath>
      <clipPath id="id70">
       <path d="M143.927 66.2835l21.6224 0 0 21.6021 -21.6224 0 0 -21.6021z"/>
      </clipPath>
      <clipPath id="id71">
       <path d="M165.55 66.2835l21.6223 0 0 21.6021 -21.6223 0 0 -21.6021z"/>
      </clipPath>
      <clipPath id="id72">
       <path d="M14.1937 87.8856l21.622 0 0 21.6021 -21.622 0 0 -21.6021z"/>
      </clipPath>
      <clipPath id="id73">
       <path d="M35.8157 87.8856l21.6221 0 0 21.6021 -21.6221 0 0 -21.6021z"/>
      </clipPath>
      <clipPath id="id74">
       <path d="M57.4378 87.8856l21.6224 0 0 21.6021 -21.6224 0 0 -21.6021z"/>
      </clipPath>
      <clipPath id="id75">
       <path d="M79.0602 87.8856l21.6224 0 0 21.6021 -21.6224 0 0 -21.6021z"/>
      </clipPath>
      <clipPath id="id76">
       <path d="M100.683 87.8856l21.6223 0 0 21.6021 -21.6223 0 0 -21.6021z"/>
      </clipPath>
      <clipPath id="id77">
       <path d="M122.305 87.8856l21.6224 0 0 21.6021 -21.6224 0 0 -21.6021z"/>
      </clipPath>
      <clipPath id="id78">
       <path d="M143.927 87.8856l21.6224 0 0 21.6021 -21.6224 0 0 -21.6021z"/>
      </clipPath>
      <clipPath id="id79">
       <path d="M165.55 87.8856l21.6223 0 0 21.6021 -21.6223 0 0 -21.6021z"/>
      </clipPath>
      <clipPath id="id80">
       <path d="M14.1937 109.488l21.622 0 0 21.6022 -21.622 0 0 -21.6022z"/>
      </clipPath>
      <clipPath id="id81">
       <path d="M35.8157 109.488l21.6221 0 0 21.6022 -21.6221 0 0 -21.6022z"/>
      </clipPath>
      <clipPath id="id82">
       <path d="M57.4378 109.488l21.6224 0 0 21.6022 -21.6224 0 0 -21.6022z"/>
      </clipPath>
      <clipPath id="id83">
       <path d="M79.0602 109.488l21.6224 0 0 21.6022 -21.6224 0 0 -21.6022z"/>
      </clipPath>
      <clipPath id="id84">
       <path d="M100.683 109.488l21.6223 0 0 21.6022 -21.6223 0 0 -21.6022z"/>
      </clipPath>
      <clipPath id="id85">
       <path d="M122.305 109.488l21.6224 0 0 21.6022 -21.6224 0 0 -21.6022z"/>
      </clipPath>
      <clipPath id="id86">
       <path d="M143.927 109.488l21.6224 0 0 21.6022 -21.6224 0 0 -21.6022z"/>
      </clipPath>
      <clipPath id="id87">
       <path d="M165.55 109.488l21.6223 0 0 21.6022 -21.6223 0 0 -21.6022z"/>
      </clipPath>
      <clipPath id="id88">
       <path d="M14.1937 131.09l21.622 0 0 21.6022 -21.622 0 0 -21.6022z"/>
      </clipPath>
      <clipPath id="id89">
       <path d="M35.8157 131.09l21.6221 0 0 21.6022 -21.6221 0 0 -21.6022z"/>
      </clipPath>
      <clipPath id="id90">
       <path d="M57.4378 131.09l21.6224 0 0 21.6022 -21.6224 0 0 -21.6022z"/>
      </clipPath>
      <clipPath id="id91">
       <path d="M79.0602 131.09l21.6224 0 0 21.6022 -21.6224 0 0 -21.6022z"/>
      </clipPath>
      <clipPath id="id92">
       <path d="M100.683 131.09l21.6223 0 0 21.6022 -21.6223 0 0 -21.6022z"/>
      </clipPath>
      <clipPath id="id93">
       <path d="M122.305 131.09l21.6224 0 0 21.6022 -21.6224 0 0 -21.6022z"/>
      </clipPath>
      <clipPath id="id94">
       <path d="M143.927 131.09l21.6224 0 0 21.6022 -21.6224 0 0 -21.6022z"/>
      </clipPath>
      <clipPath id="id95">
       <path d="M165.55 131.09l21.6223 0 0 21.6022 -21.6223 0 0 -21.6022z"/>
      </clipPath>
      <clipPath id="id96">
       <path d="M14.1937 152.692l21.622 0 0 21.6022 -21.622 0 0 -21.6022z"/>
      </clipPath>
      <clipPath id="id97">
       <path d="M35.8157 152.692l21.6221 0 0 21.6022 -21.6221 0 0 -21.6022z"/>
      </clipPath>
      <clipPath id="id98">
       <path d="M57.4378 152.692l21.6224 0 0 21.6022 -21.6224 0 0 -21.6022z"/>
      </clipPath>
      <clipPath id="id99">
       <path d="M79.0602 152.692l21.6224 0 0 21.6022 -21.6224 0 0 -21.6022z"/>
      </clipPath>
      <clipPath id="id100">
       <path d="M100.683 152.692l21.6223 0 0 21.6022 -21.6223 0 0 -21.6022z"/>
      </clipPath>
      <clipPath id="id101">
       <path d="M122.305 152.692l21.6224 0 0 21.6022 -21.6224 0 0 -21.6022z"/>
      </clipPath>
      <clipPath id="id102">
       <path d="M143.927 152.692l21.6224 0 0 21.6022 -21.6224 0 0 -21.6022z"/>
      </clipPath>
      <clipPath id="id103">
       <path d="M165.55 152.692l21.6223 0 0 21.6022 -21.6223 0 0 -21.6022z"/>
      </clipPath>
      <clipPath id="id104">
       <path d="M14.1937 174.294l21.622 0 0 21.6022 -21.622 0 0 -21.6022z"/>
      </clipPath>
      <clipPath id="id105">
       <path d="M35.8157 174.294l21.6221 0 0 21.6022 -21.6221 0 0 -21.6022z"/>
      </clipPath>
      <clipPath id="id106">
       <path d="M57.4378 174.294l21.6224 0 0 21.6022 -21.6224 0 0 -21.6022z"/>
      </clipPath>
      <clipPath id="id107">
       <path d="M79.0602 174.294l21.6224 0 0 21.6022 -21.6224 0 0 -21.6022z"/>
      </clipPath>
      <clipPath id="id108">
       <path d="M100.683 174.294l21.6223 0 0 21.6022 -21.6223 0 0 -21.6022z"/>
      </clipPath>
      <clipPath id="id109">
       <path d="M122.305 174.294l21.6224 0 0 21.6022 -21.6224 0 0 -21.6022z"/>
      </clipPath>
      <clipPath id="id110">
       <path d="M143.927 174.294l21.6224 0 0 21.6022 -21.6224 0 0 -21.6022z"/>
      </clipPath>
      <clipPath id="id111">
       <path d="M165.55 174.294l21.6223 0 0 21.6022 -21.6223 0 0 -21.6022z"/>
      </clipPath>
      <clipPath id="id112">
       <path d="M14.1937 195.896l21.622 0 0 21.6022 -21.622 0 0 -21.6022z"/>
      </clipPath>
      <clipPath id="id113">
       <path d="M35.8157 195.896l21.6221 0 0 21.6022 -21.6221 0 0 -21.6022z"/>
      </clipPath>
      <clipPath id="id114">
       <path d="M57.4378 195.896l21.6224 0 0 21.6022 -21.6224 0 0 -21.6022z"/>
      </clipPath>
      <clipPath id="id115">
       <path d="M79.0602 195.896l21.6224 0 0 21.6022 -21.6224 0 0 -21.6022z"/>
      </clipPath>
      <clipPath id="id116">
       <path d="M100.683 195.896l21.6223 0 0 21.6022 -21.6223 0 0 -21.6022z"/>
      </clipPath>
      <clipPath id="id117">
       <path d="M122.305 195.896l21.6224 0 0 21.6022 -21.6224 0 0 -21.6022z"/>
      </clipPath>
      <clipPath id="id118">
       <path d="M143.927 195.896l21.6224 0 0 21.6022 -21.6224 0 0 -21.6022z"/>
      </clipPath>
      <clipPath id="id119">
       <path d="M165.55 195.896l21.6223 0 0 21.6022 -21.6223 0 0 -21.6022z"/>
      </clipPath>
      <clipPath id="id120">
       <path d="M14.1937 217.499l21.622 0 0 21.6021 -21.622 0 0 -21.6021z"/>
      </clipPath>
      <clipPath id="id121">
       <path d="M35.8157 217.499l21.6221 0 0 21.6021 -21.6221 0 0 -21.6021z"/>
      </clipPath>
      <clipPath id="id122">
       <path d="M57.4378 217.499l21.6224 0 0 21.6021 -21.6224 0 0 -21.6021z"/>
      </clipPath>
      <clipPath id="id123">
       <path d="M79.0602 217.499l21.6224 0 0 21.6021 -21.6224 0 0 -21.6021z"/>
      </clipPath>
      <clipPath id="id124">
       <path d="M100.683 217.499l21.6223 0 0 21.6021 -21.6223 0 0 -21.6021z"/>
      </clipPath>
      <clipPath id="id125">
       <path d="M122.305 217.499l21.6224 0 0 21.6021 -21.6224 0 0 -21.6021z"/>
      </clipPath>
      <clipPath id="id126">
       <path d="M143.927 217.499l21.6224 0 0 21.6021 -21.6224 0 0 -21.6021z"/>
      </clipPath>
      <clipPath id="id127">
       <path d="M165.55 217.499l21.6223 0 0 21.6021 -21.6223 0 0 -21.6021z"/>
      </clipPath>
  <linearGradient id="id128" gradientUnits="userSpaceOnUse" x1="17.625" y1="89.8666" x2="32.3844" y2="64.3026">
   <stop offset="0" style="stop-color:#C2C1C1"/>
   <stop offset="0.431373" style="stop-color:#E1E0E0"/>
   <stop offset="1" style="stop-color:white"/>
  </linearGradient>
  <linearGradient id="id129" gradientUnits="userSpaceOnUse" xlink:href="#id128" x1="125.736" y1="176.275" x2="140.496" y2="150.711">
  </linearGradient>
 </defs>
 <g id="Layer_x0020_1">
  <metadata id="CorelCorpID_0Corel-Layer"/>
  <path class="fil0" d="M100.788 217.491l0 -27.5197 10.3287 0c2.10162,0 3.78676,0.281905 5.05543,0.832952 1.27505,0.557429 2.26819,1.4161 2.98581,2.57581 0.717619,1.15333 1.08286,2.36429 1.08286,3.63295 0,1.17257 -0.320381,2.28105 -0.961048,3.31905 -0.634381,1.038 -1.6019,1.87733 -2.88971,2.5181 1.6659,0.486952 2.94095,1.3199 3.838,2.49248 0.897048,1.17895 1.34552,2.56933 1.34552,4.17124 0,1.28781 -0.275524,2.486 -0.820095,3.59448 -0.544667,1.10848 -1.21743,1.96067 -2.01838,2.56295 -0.800952,0.602286 -1.80686,1.05086 -3.01143,1.35838 -1.20457,0.307524 -2.68476,0.461333 -4.44038,0.461333l-10.4952 0zm3.64581 -15.9544l5.95248 0c1.60819,0 2.7679,-0.108952 3.47276,-0.320381 0.922667,-0.275524 1.62105,-0.730381 2.08876,-1.37114 0.46781,-0.640762 0.704857,-1.44171 0.704857,-2.40276 0,-0.909905 -0.217905,-1.71724 -0.653524,-2.40924 -0.44219,-0.698381 -1.0701,-1.17248 -1.87743,-1.42886 -0.813714,-0.256286 -2.21048,-0.384381 -4.19038,-0.384381l-5.49752 0 0 8.31676zm0 12.7058l6.84943 0c1.17895,0 2.00552,-0.0448571 2.47971,-0.128095 0.839333,-0.15381 1.53771,-0.403714 2.10162,-0.756095 0.56381,-0.346 1.02514,-0.858571 1.39038,-1.52495 0.358857,-0.672762 0.544667,-1.44162 0.544667,-2.31943 0,-1.02524 -0.262762,-1.91581 -0.78819,-2.67829 -0.525333,-0.756095 -1.25581,-1.2879 -2.19124,-1.59552 -0.929143,-0.301143 -2.27467,-0.454857 -4.0239,-0.454857l-6.36248 0 0 9.45724z"/>
  <path id="1" class="fil0" d="M139.162 215.031c-1.25581,1.06371 -2.46038,1.81333 -3.61371,2.25543 -1.15981,0.435714 -2.40276,0.653524 -3.72914,0.653524 -2.19133,0 -3.87,-0.53181 -5.04895,-1.60181 -1.17257,-1.07 -1.7621,-2.44124 -1.7621,-4.10076 0,-0.980286 0.217905,-1.87095 0.666381,-2.67829 0.442095,-0.807333 1.02514,-1.45448 1.74286,-1.94143 0.724,-0.486952 1.53133,-0.858571 2.43476,-1.10848 0.66,-0.172952 1.65952,-0.346 2.99867,-0.50619 2.72952,-0.326762 4.74143,-0.711143 6.02933,-1.1661 0.0128571,-0.461333 0.0192381,-0.756095 0.0192381,-0.87781 0,-1.37762 -0.320381,-2.35152 -0.961143,-2.90895 -0.858571,-0.768857 -2.14648,-1.14695 -3.84438,-1.14695 -1.58905,0 -2.76162,0.275524 -3.5241,0.832952 -0.756095,0.557429 -1.31352,1.54419 -1.67876,2.96029l-3.29981 -0.454952c0.301238,-1.40962 0.794571,-2.55657 1.48019,-3.42152 0.685524,-0.871429 1.68514,-1.54419 2.98581,-2.0119 1.30067,-0.46781 2.80638,-0.704857 4.52362,-0.704857 1.70438,0 3.0819,0.205048 4.14552,0.602286 1.06362,0.403714 1.84533,0.903429 2.35152,1.51219 0.49981,0.608667 0.84581,1.37114 1.05086,2.30019 0.108857,0.576667 0.166571,1.61467 0.166571,3.114l0 4.50438c0,3.146 0.0704762,5.13229 0.21781,5.95886 0.140952,0.832952 0.429333,1.6339 0.85219,2.39638l-3.53048 0c-0.346,-0.698381 -0.576667,-1.51857 -0.672762,-2.46048zm-0.281905 -7.54781c-1.23019,0.506095 -3.06914,0.929048 -5.51676,1.28143 -1.39038,0.198667 -2.37714,0.422857 -2.94743,0.672762 -0.576667,0.249905 -1.02514,0.615143 -1.33267,1.1021 -0.314,0.480571 -0.47419,1.01238 -0.47419,1.60181 0,0.903429 0.346,1.65314 1.02524,2.25543 0.679143,0.595905 1.67867,0.897048 2.99219,0.897048 1.30067,0 2.46048,-0.281905 3.47286,-0.85219 1.01229,-0.570286 1.762,-1.352 2.2361,-2.33867 0.365238,-0.762476 0.544667,-1.89019 0.544667,-3.37676l0 -1.24295z"/>
  <path id="12" class="fil0" d="M146.184 211.539l3.33829 -0.525429c0.18581,1.33914 0.711238,2.36438 1.56981,3.082 0.85219,0.711238 2.05038,1.07 3.59457,1.07 1.55057,0 2.7039,-0.320381 3.45352,-0.948286 0.749714,-0.634286 1.12771,-1.37752 1.12771,-2.22333 0,-0.768857 -0.333143,-1.36476 -0.999524,-1.80686 -0.461333,-0.301143 -1.61467,-0.679238 -3.45362,-1.14057 -2.47324,-0.627905 -4.19686,-1.1661 -5.15152,-1.62743 -0.954667,-0.454952 -1.68514,-1.08924 -2.17848,-1.89657 -0.493429,-0.807333 -0.743333,-1.698 -0.743333,-2.6719 0,-0.890667 0.205048,-1.71076 0.615143,-2.46686 0.403714,-0.762476 0.961143,-1.39038 1.65952,-1.89019 0.525429,-0.384381 1.24305,-0.717619 2.14648,-0.986762 0.90981,-0.269048 1.88381,-0.403619 2.92171,-0.403619 1.56343,0 2.93467,0.230667 4.12,0.679143 1.18533,0.448571 2.05676,1.05724 2.62057,1.8261 0.563905,0.775333 0.948286,1.80048 1.15981,3.08838l-3.29981 0.454952c-0.15381,-1.02514 -0.589524,-1.8261 -1.30714,-2.40276 -0.717619,-0.576667 -1.73638,-0.865048 -3.0499,-0.865048 -1.55057,0 -2.65905,0.256381 -3.31905,0.768952 -0.666381,0.512571 -0.999524,1.11486 -0.999524,1.80048 0,0.442095 0.140952,0.832952 0.416476,1.18533 0.275524,0.365238 0.704857,0.66 1.29429,0.903429 0.339619,0.121714 1.33276,0.410095 2.98581,0.858571 2.39,0.640762 4.0559,1.15981 4.99781,1.56981 0.948286,0.403714 1.69152,0.999619 2.22971,1.77486 0.538286,0.775333 0.807333,1.73638 0.807333,2.88971 0,1.12771 -0.333143,2.18495 -0.986667,3.18448 -0.66,0.993143 -1.60829,1.7621 -2.84495,2.30667 -1.23657,0.544667 -2.63981,0.813714 -4.20324,0.813714 -2.59495,0 -4.56838,-0.53819 -5.92676,-1.61467 -1.35838,-1.07638 -2.22343,-2.67181 -2.59505,-4.78629z"/>
  <path id="123" class="fil0" d="M180.399 211.071l3.492 0.429333c-0.551048,2.0439 -1.56981,3.62657 -3.05629,4.75419 -1.49295,1.12133 -3.396,1.68514 -5.70905,1.68514 -2.91533,0 -5.22838,-0.896952 -6.93276,-2.69105 -1.71076,-1.7941 -2.56295,-4.31219 -2.56295,-7.55429 0,-3.35752 0.865048,-5.95886 2.58857,-7.81067 1.73,-1.85171 3.96619,-2.78076 6.72133,-2.78076 2.66552,0 4.844,0.90981 6.52914,2.72314 1.69152,1.81324 2.53733,4.36981 2.53733,7.65686 0,0.204952 -0.00638095,0.506095 -0.0192381,0.903429l-14.8651 0c0.12181,2.19133 0.743238,3.87 1.85819,5.02981 1.11486,1.1661 2.49886,1.74914 4.16476,1.74914 1.23667,0 2.29381,-0.326762 3.17162,-0.980286 0.877905,-0.647143 1.56981,-1.68514 2.08248,-3.114zm-11.0912 -5.46552l11.1296 0c-0.147333,-1.67229 -0.576667,-2.93457 -1.27505,-3.76752 -1.07638,-1.30067 -2.47324,-1.95429 -4.184,-1.95429 -1.55057,0 -2.85771,0.519048 -3.91495,1.55705 -1.05714,1.038 -1.64029,2.42838 -1.75562,4.16476z"/>
  <g id="_120793744">
   <g>
    <g>
    </g>
    <g>
     <polygon id="_120793744" class="fil1" points="14.1937,66.2835 35.8157,66.2835 35.8157,87.8856 14.1937,87.8856 "/>
     <g style="clip-path:url(#id0)">
     </g>
    </g>
    <g>
     <polygon class="fil2" points="35.8157,66.2835 57.4378,66.2835 57.4378,87.8856 35.8157,87.8856 "/>
     <g style="clip-path:url(#id1)">
     </g>
    </g>
    <g>
     <g>
     </g>
     <g style="clip-path:url(#id2)">
     </g>
    </g>
    <g>
     <g>
     </g>
     <g style="clip-path:url(#id3)">
     </g>
    </g>
    <g>
     <g>
     </g>
     <g style="clip-path:url(#id4)">
     </g>
    </g>
    <g>
     <g>
     </g>
     <g style="clip-path:url(#id5)">
     </g>
    </g>
    <g>
     <g>
     </g>
     <g style="clip-path:url(#id6)">
     </g>
    </g>
    <g>
     <g>
     </g>
     <g style="clip-path:url(#id7)">
     </g>
    </g>
    <g>
     <g>
     </g>
     <g style="clip-path:url(#id8)">
     </g>
    </g>
    <g>
     <g>
     </g>
     <g style="clip-path:url(#id9)">
     </g>
    </g>
    <g>
     <g>
     </g>
     <g style="clip-path:url(#id10)">
     </g>
    </g>
    <g>
     <g>
     </g>
     <g style="clip-path:url(#id11)">
     </g>
    </g>
    <g>
     <g>
     </g>
     <g style="clip-path:url(#id12)">
     </g>
    </g>
    <g>
     <g>
     </g>
     <g style="clip-path:url(#id13)">
     </g>
    </g>
    <g>
     <g>
     </g>
     <g style="clip-path:url(#id14)">
     </g>
    </g>
    <g>
     <g>
     </g>
     <g style="clip-path:url(#id15)">
     </g>
    </g>
    <g>
     <g>
     </g>
     <g style="clip-path:url(#id16)">
     </g>
    </g>
    <g>
     <g>
     </g>
     <g style="clip-path:url(#id17)">
     </g>
    </g>
    <g>
     <g>
     </g>
     <g style="clip-path:url(#id18)">
     </g>
    </g>
    <g>
     <g>
     </g>
     <g style="clip-path:url(#id19)">
     </g>
    </g>
    <g>
     <g>
     </g>
     <g style="clip-path:url(#id20)">
     </g>
    </g>
    <g>
     <g>
     </g>
     <g style="clip-path:url(#id21)">
     </g>
    </g>
    <g>
     <g>
     </g>
     <g style="clip-path:url(#id22)">
     </g>
    </g>
    <g>
     <g>
     </g>
     <g style="clip-path:url(#id23)">
     </g>
    </g>
    <g>
     <g>
     </g>
     <g style="clip-path:url(#id24)">
     </g>
    </g>
    <g>
     <g>
     </g>
     <g style="clip-path:url(#id25)">
     </g>
    </g>
    <g>
     <g>
     </g>
     <g style="clip-path:url(#id26)">
     </g>
    </g>
    <g>
     <g>
     </g>
     <g style="clip-path:url(#id27)">
     </g>
    </g>
    <g>
     <g>
     </g>
     <g style="clip-path:url(#id28)">
     </g>
    </g>
    <g>
     <g>
     </g>
     <g style="clip-path:url(#id29)">
     </g>
    </g>
    <g>
     <g>
     </g>
     <g style="clip-path:url(#id30)">
     </g>
    </g>
    <g>
     <g>
     </g>
     <g style="clip-path:url(#id31)">
     </g>
    </g>
    <g>
     <g>
     </g>
     <g style="clip-path:url(#id32)">
     </g>
    </g>
    <g>
     <g>
     </g>
     <g style="clip-path:url(#id33)">
     </g>
    </g>
    <g>
     <g>
     </g>
     <g style="clip-path:url(#id34)">
     </g>
    </g>
    <g>
     <g>
     </g>
     <g style="clip-path:url(#id35)">
     </g>
    </g>
    <g>
     <g>
     </g>
     <g style="clip-path:url(#id36)">
     </g>
    </g>
    <g>
     <polygon class="fil3" points="122.305,152.692 143.927,152.692 143.927,174.294 122.305,174.294 "/>
     <g style="clip-path:url(#id37)">
     </g>
    </g>
    <g>
     <g>
     </g>
     <g style="clip-path:url(#id38)">
     </g>
    </g>
    <g>
     <g>
     </g>
     <g style="clip-path:url(#id39)">
     </g>
    </g>
    <g>
     <g>
     </g>
     <g style="clip-path:url(#id40)">
     </g>
    </g>
    <g>
     <g>
     </g>
     <g style="clip-path:url(#id41)">
     </g>
    </g>
    <g>
     <g>
     </g>
     <g style="clip-path:url(#id42)">
     </g>
    </g>
    <g>
     <g>
     </g>
     <g style="clip-path:url(#id43)">
     </g>
    </g>
    <g>
     <g>
     </g>
     <g style="clip-path:url(#id44)">
     </g>
    </g>
    <g>
     <g>
     </g>
     <g style="clip-path:url(#id45)">
     </g>
    </g>
    <g>
     <g>
     </g>
     <g style="clip-path:url(#id46)">
     </g>
    </g>
    <g>
     <g>
     </g>
     <g style="clip-path:url(#id47)">
     </g>
    </g>
    <g>
     <g>
     </g>
     <g style="clip-path:url(#id48)">
     </g>
    </g>
    <g>
     <g>
     </g>
     <g style="clip-path:url(#id49)">
     </g>
    </g>
    <g>
     <g>
     </g>
     <g style="clip-path:url(#id50)">
     </g>
    </g>
    <g>
     <g>
     </g>
     <g style="clip-path:url(#id51)">
     </g>
    </g>
    <g>
     <g>
     </g>
     <g style="clip-path:url(#id52)">
     </g>
    </g>
    <g>
     <g>
     </g>
     <g style="clip-path:url(#id53)">
     </g>
    </g>
    <g>
     <g>
     </g>
     <g style="clip-path:url(#id54)">
     </g>
    </g>
    <g>
     <g>
     </g>
     <g style="clip-path:url(#id55)">
     </g>
    </g>
    <g>
     <g>
     </g>
     <g style="clip-path:url(#id56)">
     </g>
    </g>
    <g>
     <g>
     </g>
     <g style="clip-path:url(#id57)">
     </g>
    </g>
    <g>
     <g>
     </g>
     <g style="clip-path:url(#id58)">
     </g>
    </g>
    <g>
     <g>
     </g>
     <g style="clip-path:url(#id59)">
     </g>
    </g>
    <g>
     <g>
     </g>
     <g style="clip-path:url(#id60)">
     </g>
    </g>
    <g>
     <g>
     </g>
     <g style="clip-path:url(#id61)">
     </g>
    </g>
    <g>
     <g>
     </g>
     <g style="clip-path:url(#id62)">
     </g>
    </g>
    <g>
     <g>
     </g>
     <g style="clip-path:url(#id63)">
     </g>
    </g>
    <polyline class="fil4 str0" points="14.1937,239.196 14.1937,239.101 14.1937,217.499 14.1937,195.896 14.1937,174.294 14.1937,152.692 14.1937,131.09 14.1937,109.488 14.1937,87.8856 14.1937,66.2835 14.1937,66.1883 "/>
    <polyline id="1" class="fil4 str0" points="35.8157,239.196 35.8157,239.101 35.8157,217.499 35.8157,195.896 35.8157,174.294 35.8157,152.692 35.8157,131.09 35.8157,109.488 35.8157,87.8856 35.8157,66.2835 35.8157,66.1883 "/>
    <polyline id="12" class="fil4 str0" points="57.4378,239.196 57.4378,239.101 57.4378,217.499 57.4378,195.896 57.4378,174.294 57.4378,152.692 57.4378,131.09 57.4378,109.488 57.4378,87.8856 57.4378,66.2835 57.4378,66.1883 "/>
    <polyline id="123" class="fil4 str0" points="79.0602,239.196 79.0602,239.101 79.0602,217.499 79.0602,195.896 79.0602,174.294 79.0602,152.692 79.0602,131.09 79.0602,109.488 79.0602,87.8856 79.0602,66.2835 79.0602,66.1883 "/>
    <polyline id="1234" class="fil4 str0" points="100.683,239.196 100.683,239.101 100.683,217.499 100.683,195.896 100.683,174.294 100.683,152.692 100.683,131.09 100.683,109.488 100.683,87.8856 100.683,66.2835 100.683,66.1883 "/>
    <polyline id="12345" class="fil4 str0" points="122.305,239.196 122.305,239.101 122.305,217.499 122.305,195.896 122.305,174.294 122.305,152.692 122.305,131.09 122.305,109.488 122.305,87.8856 122.305,66.2835 122.305,66.1883 "/>
    <polyline id="123456" class="fil4 str0" points="143.927,239.196 143.927,239.101 143.927,217.499 143.927,195.896 143.927,174.294 143.927,152.692 143.927,131.09 143.927,109.488 143.927,87.8856 143.927,66.2835 143.927,66.1883 "/>
    <polyline id="1234567" class="fil4 str0" points="165.55,239.196 165.55,239.101 165.55,217.499 165.55,195.896 165.55,174.294 165.55,152.692 165.55,131.09 165.55,109.488 165.55,87.8856 165.55,66.2835 165.55,66.1883 "/>
    <polyline id="12345678" class="fil4 str0" points="187.172,239.196 187.172,239.101 187.172,217.499 187.172,195.896 187.172,174.294 187.172,152.692 187.172,131.09 187.172,109.488 187.172,87.8856 187.172,66.2835 187.172,66.1883 "/>
    <polyline id="123456789" class="fil4 str0" points="14.0985,239.101 14.1937,239.101 35.8157,239.101 57.4378,239.101 79.0602,239.101 100.683,239.101 122.305,239.101 143.927,239.101 165.55,239.101 187.172,239.101 187.267,239.101 "/>
    <polyline id="12345678910" class="fil4 str0" points="14.0985,217.499 14.1937,217.499 35.8157,217.499 57.4378,217.499 79.0602,217.499 100.683,217.499 122.305,217.499 143.927,217.499 165.55,217.499 187.172,217.499 187.267,217.499 "/>
    <polyline id="1234567891011" class="fil4 str0" points="14.0985,195.896 14.1937,195.896 35.8157,195.896 57.4378,195.896 79.0602,195.896 100.683,195.896 122.305,195.896 143.927,195.896 165.55,195.896 187.172,195.896 187.267,195.896 "/>
    <polyline id="123456789101112" class="fil4 str0" points="14.0985,174.294 14.1937,174.294 35.8157,174.294 57.4378,174.294 79.0602,174.294 100.683,174.294 122.305,174.294 143.927,174.294 165.55,174.294 187.172,174.294 187.267,174.294 "/>
    <polyline id="12345678910111213" class="fil4 str0" points="14.0985,152.692 14.1937,152.692 35.8157,152.692 57.4378,152.692 79.0602,152.692 100.683,152.692 122.305,152.692 143.927,152.692 165.55,152.692 187.172,152.692 187.267,152.692 "/>
    <polyline id="1234567891011121314" class="fil4 str0" points="14.0985,131.09 14.1937,131.09 35.8157,131.09 57.4378,131.09 79.0602,131.09 100.683,131.09 122.305,131.09 143.927,131.09 165.55,131.09 187.172,131.09 187.267,131.09 "/>
    <polyline id="123456789101112131415" class="fil4 str0" points="14.0985,109.488 14.1937,109.488 35.8157,109.488 57.4378,109.488 79.0602,109.488 100.683,109.488 122.305,109.488 143.927,109.488 165.55,109.488 187.172,109.488 187.267,109.488 "/>
    <polyline id="12345678910111213141516" class="fil4 str0" points="14.0985,87.8856 14.1937,87.8856 35.8157,87.8856 57.4378,87.8856 79.0602,87.8856 100.683,87.8856 122.305,87.8856 143.927,87.8856 165.55,87.8856 187.172,87.8856 187.267,87.8856 "/>
    <polyline id="1234567891011121314151617" class="fil4 str0" points="14.0985,66.2835 14.1937,66.2835 35.8157,66.2835 57.4378,66.2835 79.0602,66.2835 100.683,66.2835 122.305,66.2835 143.927,66.2835 165.55,66.2835 187.172,66.2835 187.267,66.2835 "/>
   </g>
  </g>
  <g>
   <g>
    <g>
    </g>
    <g>
     <polygon class="fil1" points="14.1937,66.2835 35.8157,66.2835 35.8157,87.8856 14.1937,87.8856 "/>
     <g style="clip-path:url(#id64)">
     </g>
    </g>
    <g>
     <polygon class="fil2" points="35.8157,66.2835 57.4378,66.2835 57.4378,87.8856 35.8157,87.8856 "/>
     <g style="clip-path:url(#id65)">
     </g>
    </g>
    <g>
     <g>
     </g>
     <g style="clip-path:url(#id66)">
     </g>
    </g>
    <g>
     <g>
     </g>
     <g style="clip-path:url(#id67)">
     </g>
    </g>
    <g>
     <g>
     </g>
     <g style="clip-path:url(#id68)">
     </g>
    </g>
    <g>
     <g>
     </g>
     <g style="clip-path:url(#id69)">
     </g>
    </g>
    <g>
     <g>
     </g>
     <g style="clip-path:url(#id70)">
     </g>
    </g>
    <g>
     <g>
     </g>
     <g style="clip-path:url(#id71)">
     </g>
    </g>
    <g>
     <g>
     </g>
     <g style="clip-path:url(#id72)">
     </g>
    </g>
    <g>
     <g>
     </g>
     <g style="clip-path:url(#id73)">
     </g>
    </g>
    <g>
     <g>
     </g>
     <g style="clip-path:url(#id74)">
     </g>
    </g>
    <g>
     <g>
     </g>
     <g style="clip-path:url(#id75)">
     </g>
    </g>
    <g>
     <g>
     </g>
     <g style="clip-path:url(#id76)">
     </g>
    </g>
    <g>
     <g>
     </g>
     <g style="clip-path:url(#id77)">
     </g>
    </g>
    <g>
     <g>
     </g>
     <g style="clip-path:url(#id78)">
     </g>
    </g>
    <g>
     <g>
     </g>
     <g style="clip-path:url(#id79)">
     </g>
    </g>
    <g>
     <g>
     </g>
     <g style="clip-path:url(#id80)">
     </g>
    </g>
    <g>
     <g>
     </g>
     <g style="clip-path:url(#id81)">
     </g>
    </g>
    <g>
     <g>
     </g>
     <g style="clip-path:url(#id82)">
     </g>
    </g>
    <g>
     <g>
     </g>
     <g style="clip-path:url(#id83)">
     </g>
    </g>
    <g>
     <g>
     </g>
     <g style="clip-path:url(#id84)">
     </g>
    </g>
    <g>
     <g>
     </g>
     <g style="clip-path:url(#id85)">
     </g>
    </g>
    <g>
     <g>
     </g>
     <g style="clip-path:url(#id86)">
     </g>
    </g>
    <g>
     <g>
     </g>
     <g style="clip-path:url(#id87)">
     </g>
    </g>
    <g>
     <g>
     </g>
     <g style="clip-path:url(#id88)">
     </g>
    </g>
    <g>
     <g>
     </g>
     <g style="clip-path:url(#id89)">
     </g>
    </g>
    <g>
     <g>
     </g>
     <g style="clip-path:url(#id90)">
     </g>
    </g>
    <g>
     <g>
     </g>
     <g style="clip-path:url(#id91)">
     </g>
    </g>
    <g>
     <g>
     </g>
     <g style="clip-path:url(#id92)">
     </g>
    </g>
    <g>
     <g>
     </g>
     <g style="clip-path:url(#id93)">
     </g>
    </g>
    <g>
     <g>
     </g>
     <g style="clip-path:url(#id94)">
     </g>
    </g>
    <g>
     <g>
     </g>
     <g style="clip-path:url(#id95)">
     </g>
    </g>
    <g>
     <g>
     </g>
     <g style="clip-path:url(#id96)">
     </g>
    </g>
    <g>
     <g>
     </g>
     <g style="clip-path:url(#id97)">
     </g>
    </g>
    <g>
     <g>
     </g>
     <g style="clip-path:url(#id98)">
     </g>
    </g>
    <g>
     <g>
     </g>
     <g style="clip-path:url(#id99)">
     </g>
    </g>
    <g>
     <g>
     </g>
     <g style="clip-path:url(#id100)">
     </g>
    </g>
    <g>
     <polygon class="fil3" points="122.305,152.692 143.927,152.692 143.927,174.294 122.305,174.294 "/>
     <g style="clip-path:url(#id101)">
     </g>
    </g>
    <g>
     <g>
     </g>
     <g style="clip-path:url(#id102)">
     </g>
    </g>
    <g>
     <g>
     </g>
     <g style="clip-path:url(#id103)">
     </g>
    </g>
    <g>
     <g>
     </g>
     <g style="clip-path:url(#id104)">
     </g>
    </g>
    <g>
     <g>
     </g>
     <g style="clip-path:url(#id105)">
     </g>
    </g>
    <g>
     <g>
     </g>
     <g style="clip-path:url(#id106)">
     </g>
    </g>
    <g>
     <g>
     </g>
     <g style="clip-path:url(#id107)">
     </g>
    </g>
    <g>
     <g>
     </g>
     <g style="clip-path:url(#id108)">
     </g>
    </g>
    <g>
     <g>
     </g>
     <g style="clip-path:url(#id109)">
     </g>
    </g>
    <g>
     <g>
     </g>
     <g style="clip-path:url(#id110)">
     </g>
    </g>
    <g>
     <g>
     </g>
     <g style="clip-path:url(#id111)">
     </g>
    </g>
    <g>
     <g>
     </g>
     <g style="clip-path:url(#id112)">
     </g>
    </g>
    <g>
     <g>
     </g>
     <g style="clip-path:url(#id113)">
     </g>
    </g>
    <g>
     <g>
     </g>
     <g style="clip-path:url(#id114)">
     </g>
    </g>
    <g>
     <g>
     </g>
     <g style="clip-path:url(#id115)">
     </g>
    </g>
    <g>
     <g>
     </g>
     <g style="clip-path:url(#id116)">
     </g>
    </g>
    <g>
     <g>
     </g>
     <g style="clip-path:url(#id117)">
     </g>
    </g>
    <g>
     <g>
     </g>
     <g style="clip-path:url(#id118)">
     </g>
    </g>
    <g>
     <g>
     </g>
     <g style="clip-path:url(#id119)">
     </g>
    </g>
    <g>
     <g>
     </g>
     <g style="clip-path:url(#id120)">
     </g>
    </g>
    <g>
     <g>
     </g>
     <g style="clip-path:url(#id121)">
     </g>
    </g>
    <g>
     <g>
     </g>
     <g style="clip-path:url(#id122)">
     </g>
    </g>
    <g>
     <g>
     </g>
     <g style="clip-path:url(#id123)">
     </g>
    </g>
    <g>
     <g>
     </g>
     <g style="clip-path:url(#id124)">
     </g>
    </g>
    <g>
     <g>
     </g>
     <g style="clip-path:url(#id125)">
     </g>
    </g>
    <g>
     <g>
     </g>
     <g style="clip-path:url(#id126)">
     </g>
    </g>
    <g>
     <g>
     </g>
     <g style="clip-path:url(#id127)">
     </g>
    </g>
    <polyline class="fil4 str0" points="14.1937,239.196 14.1937,239.101 14.1937,217.499 14.1937,195.896 14.1937,174.294 14.1937,152.692 14.1937,131.09 14.1937,109.488 14.1937,87.8856 14.1937,66.2835 14.1937,66.1883 "/>
    <polyline id="1" class="fil4 str0" points="35.8157,239.196 35.8157,239.101 35.8157,217.499 35.8157,195.896 35.8157,174.294 35.8157,152.692 35.8157,131.09 35.8157,109.488 35.8157,87.8856 35.8157,66.2835 35.8157,66.1883 "/>
    <polyline id="12" class="fil4 str0" points="57.4378,239.196 57.4378,239.101 57.4378,217.499 57.4378,195.896 57.4378,174.294 57.4378,152.692 57.4378,131.09 57.4378,109.488 57.4378,87.8856 57.4378,66.2835 57.4378,66.1883 "/>
    <polyline id="123" class="fil4 str0" points="79.0602,239.196 79.0602,239.101 79.0602,217.499 79.0602,195.896 79.0602,174.294 79.0602,152.692 79.0602,131.09 79.0602,109.488 79.0602,87.8856 79.0602,66.2835 79.0602,66.1883 "/>
    <polyline id="1234" class="fil4 str0" points="100.683,239.196 100.683,239.101 100.683,217.499 100.683,195.896 100.683,174.294 100.683,152.692 100.683,131.09 100.683,109.488 100.683,87.8856 100.683,66.2835 100.683,66.1883 "/>
    <polyline id="12345" class="fil4 str0" points="122.305,239.196 122.305,239.101 122.305,217.499 122.305,195.896 122.305,174.294 122.305,152.692 122.305,131.09 122.305,109.488 122.305,87.8856 122.305,66.2835 122.305,66.1883 "/>
    <polyline id="123456" class="fil4 str0" points="143.927,239.196 143.927,239.101 143.927,217.499 143.927,195.896 143.927,174.294 143.927,152.692 143.927,131.09 143.927,109.488 143.927,87.8856 143.927,66.2835 143.927,66.1883 "/>
    <polyline id="1234567" class="fil4 str0" points="165.55,239.196 165.55,239.101 165.55,217.499 165.55,195.896 165.55,174.294 165.55,152.692 165.55,131.09 165.55,109.488 165.55,87.8856 165.55,66.2835 165.55,66.1883 "/>
    <polyline id="12345678" class="fil4 str0" points="187.172,239.196 187.172,239.101 187.172,217.499 187.172,195.896 187.172,174.294 187.172,152.692 187.172,131.09 187.172,109.488 187.172,87.8856 187.172,66.2835 187.172,66.1883 "/>
    <polyline id="123456789" class="fil4 str0" points="14.0985,239.101 14.1937,239.101 35.8157,239.101 57.4378,239.101 79.0602,239.101 100.683,239.101 122.305,239.101 143.927,239.101 165.55,239.101 187.172,239.101 187.267,239.101 "/>
    <polyline id="12345678910" class="fil4 str0" points="14.0985,217.499 14.1937,217.499 35.8157,217.499 57.4378,217.499 79.0602,217.499 100.683,217.499 122.305,217.499 143.927,217.499 165.55,217.499 187.172,217.499 187.267,217.499 "/>
    <polyline id="1234567891011" class="fil4 str0" points="14.0985,195.896 14.1937,195.896 35.8157,195.896 57.4378,195.896 79.0602,195.896 100.683,195.896 122.305,195.896 143.927,195.896 165.55,195.896 187.172,195.896 187.267,195.896 "/>
    <polyline id="123456789101112" class="fil4 str0" points="14.0985,174.294 14.1937,174.294 35.8157,174.294 57.4378,174.294 79.0602,174.294 100.683,174.294 122.305,174.294 143.927,174.294 165.55,174.294 187.172,174.294 187.267,174.294 "/>
    <polyline id="12345678910111213" class="fil4 str0" points="14.0985,152.692 14.1937,152.692 35.8157,152.692 57.4378,152.692 79.0602,152.692 100.683,152.692 122.305,152.692 143.927,152.692 165.55,152.692 187.172,152.692 187.267,152.692 "/>
    <polyline id="1234567891011121314" class="fil4 str0" points="14.0985,131.09 14.1937,131.09 35.8157,131.09 57.4378,131.09 79.0602,131.09 100.683,131.09 122.305,131.09 143.927,131.09 165.55,131.09 187.172,131.09 187.267,131.09 "/>
    <polyline id="123456789101112131415" class="fil4 str0" points="14.0985,109.488 14.1937,109.488 35.8157,109.488 57.4378,109.488 79.0602,109.488 100.683,109.488 122.305,109.488 143.927,109.488 165.55,109.488 187.172,109.488 187.267,109.488 "/>
    <polyline id="12345678910111213141516" class="fil4 str0" points="14.0985,87.8856 14.1937,87.8856 35.8157,87.8856 57.4378,87.8856 79.0602,87.8856 100.683,87.8856 122.305,87.8856 143.927,87.8856 165.55,87.8856 187.172,87.8856 187.267,87.8856 "/>
    <polyline id="1234567891011121314151617" class="fil4 str0" points="14.0985,66.2835 14.1937,66.2835 35.8157,66.2835 57.4378,66.2835 79.0602,66.2835 100.683,66.2835 122.305,66.2835 143.927,66.2835 165.55,66.2835 187.172,66.2835 187.267,66.2835 "/>
   </g>
  </g>
 </g>
</svg>
